<?xml version="1.0" encoding="UTF-8" standalone="no"?>
<!-- Created with Inkscape (http://www.inkscape.org/) -->

<svg
   width="48"
   height="48"
   viewBox="0 0 48 48"
   version="1.1"
   id="svg1"
   xml:space="preserve"
   xmlns="http://www.w3.org/2000/svg"
   xmlns:svg="http://www.w3.org/2000/svg"><defs
     id="defs1" /><g
     id="layer1"><path
       style="font-weight:300;font-size:19.6717px;font-family:'Maplestory OTF';-inkscape-font-specification:'Maplestory OTF Light';fill:#a14ceb;stroke-width:0.819652"
       d="m 23.57768,34.459598 c -0.07869,-2.458963 -1.829468,-3.93434 -4.780223,-3.776967 -3.068785,0.157374 -4.563834,1.947498 -4.563834,4.072042 0,2.419619 1.652423,3.894997 4.681865,3.776966 2.990098,-0.11803 4.740879,-1.711438 4.662192,-4.072041 z m -8.694891,-6.885095 c 1.534393,0.885226 2.990098,1.672094 4.111385,2.242573 0.432778,0.216389 0.68851,0.07869 1.003257,-0.413105 0.314747,-0.452449 0.23606,-0.826212 -0.177045,-1.081944 -1.160631,-0.688509 -2.636008,-1.514721 -4.111385,-2.380275 0,-0.609823 0,-1.632751 -0.01967,-2.65568 1.534392,-0.07869 2.931083,-0.177045 3.698279,-0.216389 0.550808,-0.03934 0.786868,-0.314747 0.767197,-0.924569 -0.01967,-0.629495 -0.255732,-0.767197 -0.786868,-0.747525 -0.826212,0.03934 -2.203231,0.09836 -3.678608,0.157374 -0.01967,-0.550808 -0.01967,-1.022929 -0.01967,-1.318004 -0.01967,-0.668838 -0.177045,-0.92457 -1.121287,-0.865555 -0.845883,0.03934 -1.022928,0.373762 -1.003256,0.983585 0,0.314747 0.01967,0.767196 0.01967,1.27866 -1.455705,0.05902 -2.813053,0.137702 -3.6392641,0.177046 -0.4131057,0.01967 -0.7278529,0.295075 -0.7081812,0.92457 0.019672,0.609822 0.3147472,0.845883 0.7868683,0.826211 0.747524,-0.01967 2.104872,-0.09836 3.599921,-0.177045 0.01967,1.062271 0.03934,2.0852 0.07869,2.734366 -0.904898,0.983585 -2.458962,2.557321 -3.462219,3.540906 -0.3147468,0.314747 -0.4131053,0.629494 -0.09836,1.022928 0.334419,0.413106 0.865555,0.531136 1.258989,0.196717 0.963913,-0.806539 2.458962,-2.222902 3.501562,-3.304845 z m 8.773578,-1.121287 c 0.747525,0 1.534393,-0.01967 1.84914,-0.03934 0.491792,-0.01967 0.629494,-0.413105 0.629494,-0.983585 0,-0.570479 -0.216388,-0.786868 -0.767196,-0.786868 -0.23606,0 -0.983585,0 -1.672094,0.01967 0.01967,-1.022928 0.01967,-2.026185 0.03934,-2.872068 0.01967,-0.708181 -0.314747,-1.0426 -1.022928,-1.0426 -0.786868,0 -1.062272,0.275404 -1.062272,0.983585 -0.03934,2.931083 -0.09836,6.806408 -0.05902,8.026053 0.01967,0.786868 0.35409,0.944242 0.92457,0.963914 0.550807,0.01967 0.924569,-0.157374 1.003256,-0.904899 0.07869,-0.668837 0.11803,-1.947498 0.137702,-3.36386 z m -2.0852,8.026053 c 0.03934,1.416363 -1.003257,2.399948 -2.714695,2.458963 -1.593407,0.05902 -2.596664,-0.786868 -2.616336,-2.242574 -0.01967,-1.318004 0.963914,-2.340932 2.616336,-2.419619 1.573736,-0.07869 2.675352,0.727853 2.714695,2.20323 z"
       id="text1"
       transform="rotate(-13.634221)"
       aria-label="창" /><circle
       style="fill:none;fill-opacity:1;stroke:#555550;stroke-width:1.26354;stroke-dasharray:none;stroke-opacity:1"
       id="path32"
       r="17.208229"
       cy="24"
       cx="24" /></g></svg>
